<mxfile host="app.diagrams.net" modified="2021-09-21T03:53:37.848Z" agent="5.0 (Macintosh; Intel Mac OS X 10_15_7) AppleWebKit/537.36 (KHTML, like Gecko) Chrome/93.0.4577.82 Safari/537.36" etag="okAx07pYxD0m5B2-WqQ4" version="15.2.9" type="github">
  <diagram id="xdVJDsgWr1G5eVAkWi-u" name="Page-1">
    <mxGraphModel dx="6570" dy="1895" grid="1" gridSize="10" guides="1" tooltips="1" connect="1" arrows="1" fold="1" page="1" pageScale="1" pageWidth="1169" pageHeight="1654" math="0" shadow="0">
      <root>
        <mxCell id="0" />
        <mxCell id="1" parent="0" />
        <mxCell id="-6zLBio0qQHxGw2DxLxj-8" value="" style="edgeStyle=orthogonalEdgeStyle;rounded=0;orthogonalLoop=1;jettySize=auto;html=1;" edge="1" parent="1" source="-6zLBio0qQHxGw2DxLxj-1" target="-6zLBio0qQHxGw2DxLxj-3">
          <mxGeometry relative="1" as="geometry" />
        </mxCell>
        <mxCell id="-6zLBio0qQHxGw2DxLxj-1" value="开始" style="rounded=1;whiteSpace=wrap;html=1;" vertex="1" parent="1">
          <mxGeometry x="315" y="10" width="90" height="30" as="geometry" />
        </mxCell>
        <mxCell id="-6zLBio0qQHxGw2DxLxj-6" value="" style="edgeStyle=orthogonalEdgeStyle;rounded=0;orthogonalLoop=1;jettySize=auto;html=1;" edge="1" parent="1" source="-6zLBio0qQHxGw2DxLxj-3" target="-6zLBio0qQHxGw2DxLxj-5">
          <mxGeometry relative="1" as="geometry" />
        </mxCell>
        <mxCell id="-6zLBio0qQHxGw2DxLxj-3" value="删除的结点不存在" style="rhombus;whiteSpace=wrap;html=1;" vertex="1" parent="1">
          <mxGeometry x="300" y="80" width="120" height="80" as="geometry" />
        </mxCell>
        <mxCell id="-6zLBio0qQHxGw2DxLxj-4" value="结束" style="rounded=1;whiteSpace=wrap;html=1;" vertex="1" parent="1">
          <mxGeometry x="325" y="1460" width="70" height="40" as="geometry" />
        </mxCell>
        <mxCell id="-6zLBio0qQHxGw2DxLxj-10" value="" style="edgeStyle=orthogonalEdgeStyle;rounded=0;orthogonalLoop=1;jettySize=auto;html=1;" edge="1" parent="1" source="-6zLBio0qQHxGw2DxLxj-5" target="-6zLBio0qQHxGw2DxLxj-9">
          <mxGeometry relative="1" as="geometry" />
        </mxCell>
        <mxCell id="-6zLBio0qQHxGw2DxLxj-14" value="" style="edgeStyle=orthogonalEdgeStyle;rounded=0;orthogonalLoop=1;jettySize=auto;html=1;" edge="1" parent="1" source="-6zLBio0qQHxGw2DxLxj-5" target="-6zLBio0qQHxGw2DxLxj-13">
          <mxGeometry relative="1" as="geometry" />
        </mxCell>
        <mxCell id="-6zLBio0qQHxGw2DxLxj-5" value="删除的结点值大于&lt;br&gt;当前结点值" style="rhombus;whiteSpace=wrap;html=1;" vertex="1" parent="1">
          <mxGeometry x="280" y="200" width="160" height="60" as="geometry" />
        </mxCell>
        <mxCell id="-6zLBio0qQHxGw2DxLxj-7" value="No" style="text;html=1;align=center;verticalAlign=middle;resizable=0;points=[];autosize=1;strokeColor=none;fillColor=none;" vertex="1" parent="1">
          <mxGeometry x="355" y="160" width="30" height="20" as="geometry" />
        </mxCell>
        <mxCell id="-6zLBio0qQHxGw2DxLxj-9" value="递归去右子树查找" style="whiteSpace=wrap;html=1;" vertex="1" parent="1">
          <mxGeometry x="90" y="205" width="120" height="50" as="geometry" />
        </mxCell>
        <mxCell id="-6zLBio0qQHxGw2DxLxj-11" value="Yes" style="text;html=1;align=center;verticalAlign=middle;resizable=0;points=[];autosize=1;strokeColor=none;fillColor=none;" vertex="1" parent="1">
          <mxGeometry x="240" y="205" width="40" height="20" as="geometry" />
        </mxCell>
        <mxCell id="-6zLBio0qQHxGw2DxLxj-16" value="" style="edgeStyle=orthogonalEdgeStyle;rounded=0;orthogonalLoop=1;jettySize=auto;html=1;" edge="1" parent="1" source="-6zLBio0qQHxGw2DxLxj-13" target="-6zLBio0qQHxGw2DxLxj-15">
          <mxGeometry relative="1" as="geometry" />
        </mxCell>
        <mxCell id="-6zLBio0qQHxGw2DxLxj-21" value="" style="edgeStyle=orthogonalEdgeStyle;rounded=0;orthogonalLoop=1;jettySize=auto;html=1;" edge="1" parent="1" source="-6zLBio0qQHxGw2DxLxj-13" target="-6zLBio0qQHxGw2DxLxj-20">
          <mxGeometry relative="1" as="geometry" />
        </mxCell>
        <mxCell id="-6zLBio0qQHxGw2DxLxj-13" value="删除的结点值小于&lt;br&gt;当前结点值" style="rhombus;whiteSpace=wrap;html=1;" vertex="1" parent="1">
          <mxGeometry x="280" y="310" width="160" height="60" as="geometry" />
        </mxCell>
        <mxCell id="-6zLBio0qQHxGw2DxLxj-15" value="递归去左子树查找" style="whiteSpace=wrap;html=1;" vertex="1" parent="1">
          <mxGeometry x="20" y="310" width="120" height="60" as="geometry" />
        </mxCell>
        <mxCell id="-6zLBio0qQHxGw2DxLxj-17" value="Yes" style="text;html=1;align=center;verticalAlign=middle;resizable=0;points=[];autosize=1;strokeColor=none;fillColor=none;" vertex="1" parent="1">
          <mxGeometry x="240" y="310" width="40" height="20" as="geometry" />
        </mxCell>
        <mxCell id="-6zLBio0qQHxGw2DxLxj-18" value="No" style="text;html=1;align=center;verticalAlign=middle;resizable=0;points=[];autosize=1;strokeColor=none;fillColor=none;" vertex="1" parent="1">
          <mxGeometry x="355" y="270" width="30" height="20" as="geometry" />
        </mxCell>
        <mxCell id="-6zLBio0qQHxGw2DxLxj-23" value="" style="edgeStyle=orthogonalEdgeStyle;rounded=0;orthogonalLoop=1;jettySize=auto;html=1;" edge="1" parent="1" source="-6zLBio0qQHxGw2DxLxj-20" target="-6zLBio0qQHxGw2DxLxj-22">
          <mxGeometry relative="1" as="geometry" />
        </mxCell>
        <mxCell id="-6zLBio0qQHxGw2DxLxj-20" value="删除的结点值等于&lt;br&gt;当前结点值" style="rhombus;whiteSpace=wrap;html=1;" vertex="1" parent="1">
          <mxGeometry x="280" y="410" width="160" height="60" as="geometry" />
        </mxCell>
        <mxCell id="-6zLBio0qQHxGw2DxLxj-25" value="" style="edgeStyle=orthogonalEdgeStyle;rounded=0;orthogonalLoop=1;jettySize=auto;html=1;" edge="1" parent="1" source="-6zLBio0qQHxGw2DxLxj-22" target="-6zLBio0qQHxGw2DxLxj-24">
          <mxGeometry relative="1" as="geometry" />
        </mxCell>
        <mxCell id="-6zLBio0qQHxGw2DxLxj-28" value="" style="edgeStyle=orthogonalEdgeStyle;rounded=0;orthogonalLoop=1;jettySize=auto;html=1;" edge="1" parent="1" source="-6zLBio0qQHxGw2DxLxj-22" target="-6zLBio0qQHxGw2DxLxj-27">
          <mxGeometry relative="1" as="geometry" />
        </mxCell>
        <mxCell id="-6zLBio0qQHxGw2DxLxj-22" value="待删除结点为叶子结点" style="rhombus;whiteSpace=wrap;html=1;" vertex="1" parent="1">
          <mxGeometry x="280" y="520" width="160" height="60" as="geometry" />
        </mxCell>
        <mxCell id="-6zLBio0qQHxGw2DxLxj-24" value="释放cur结点" style="rounded=0;whiteSpace=wrap;html=1;" vertex="1" parent="1">
          <mxGeometry x="97.5" y="525" width="105" height="50" as="geometry" />
        </mxCell>
        <mxCell id="-6zLBio0qQHxGw2DxLxj-26" value="Yes" style="text;html=1;align=center;verticalAlign=middle;resizable=0;points=[];autosize=1;strokeColor=none;fillColor=none;" vertex="1" parent="1">
          <mxGeometry x="250" y="530" width="40" height="20" as="geometry" />
        </mxCell>
        <mxCell id="-6zLBio0qQHxGw2DxLxj-30" value="" style="edgeStyle=orthogonalEdgeStyle;rounded=0;orthogonalLoop=1;jettySize=auto;html=1;" edge="1" parent="1" source="-6zLBio0qQHxGw2DxLxj-27" target="-6zLBio0qQHxGw2DxLxj-29">
          <mxGeometry relative="1" as="geometry" />
        </mxCell>
        <mxCell id="-6zLBio0qQHxGw2DxLxj-35" value="" style="edgeStyle=orthogonalEdgeStyle;rounded=0;orthogonalLoop=1;jettySize=auto;html=1;" edge="1" parent="1" source="-6zLBio0qQHxGw2DxLxj-27" target="-6zLBio0qQHxGw2DxLxj-34">
          <mxGeometry relative="1" as="geometry" />
        </mxCell>
        <mxCell id="-6zLBio0qQHxGw2DxLxj-27" value="待删除结点只有左子树" style="rhombus;whiteSpace=wrap;html=1;" vertex="1" parent="1">
          <mxGeometry x="280" y="630" width="160" height="60" as="geometry" />
        </mxCell>
        <mxCell id="-6zLBio0qQHxGw2DxLxj-29" value="左子树给temp指针保存，释放cur结点，&lt;br&gt;返回temp" style="whiteSpace=wrap;html=1;" vertex="1" parent="1">
          <mxGeometry x="90" y="630" width="120" height="60" as="geometry" />
        </mxCell>
        <mxCell id="-6zLBio0qQHxGw2DxLxj-37" value="" style="edgeStyle=orthogonalEdgeStyle;rounded=0;orthogonalLoop=1;jettySize=auto;html=1;entryX=1;entryY=0.5;entryDx=0;entryDy=0;" edge="1" parent="1" source="-6zLBio0qQHxGw2DxLxj-34" target="-6zLBio0qQHxGw2DxLxj-38">
          <mxGeometry relative="1" as="geometry">
            <mxPoint x="240" y="890" as="targetPoint" />
          </mxGeometry>
        </mxCell>
        <mxCell id="-6zLBio0qQHxGw2DxLxj-42" value="" style="edgeStyle=orthogonalEdgeStyle;rounded=0;orthogonalLoop=1;jettySize=auto;html=1;" edge="1" parent="1" source="-6zLBio0qQHxGw2DxLxj-34" target="-6zLBio0qQHxGw2DxLxj-41">
          <mxGeometry relative="1" as="geometry" />
        </mxCell>
        <mxCell id="-6zLBio0qQHxGw2DxLxj-34" value="待删除结点只有右子树" style="rhombus;whiteSpace=wrap;html=1;" vertex="1" parent="1">
          <mxGeometry x="280" y="730" width="160" height="60" as="geometry" />
        </mxCell>
        <mxCell id="-6zLBio0qQHxGw2DxLxj-38" value="右子树给temp指针保存，释放cur结点，&lt;br&gt;返回temp" style="whiteSpace=wrap;html=1;" vertex="1" parent="1">
          <mxGeometry x="90" y="730" width="120" height="60" as="geometry" />
        </mxCell>
        <mxCell id="-6zLBio0qQHxGw2DxLxj-39" value="Yes" style="text;html=1;align=center;verticalAlign=middle;resizable=0;points=[];autosize=1;strokeColor=none;fillColor=none;" vertex="1" parent="1">
          <mxGeometry x="235" y="640" width="40" height="20" as="geometry" />
        </mxCell>
        <mxCell id="-6zLBio0qQHxGw2DxLxj-40" value="Yes" style="text;html=1;align=center;verticalAlign=middle;resizable=0;points=[];autosize=1;strokeColor=none;fillColor=none;" vertex="1" parent="1">
          <mxGeometry x="235" y="740" width="40" height="20" as="geometry" />
        </mxCell>
        <mxCell id="-6zLBio0qQHxGw2DxLxj-44" value="" style="edgeStyle=orthogonalEdgeStyle;rounded=0;orthogonalLoop=1;jettySize=auto;html=1;" edge="1" parent="1" source="-6zLBio0qQHxGw2DxLxj-41" target="-6zLBio0qQHxGw2DxLxj-43">
          <mxGeometry relative="1" as="geometry" />
        </mxCell>
        <mxCell id="-6zLBio0qQHxGw2DxLxj-41" value="待删除结点既有左子树也有右子树" style="rhombus;whiteSpace=wrap;html=1;" vertex="1" parent="1">
          <mxGeometry x="235" y="827" width="250" height="60" as="geometry" />
        </mxCell>
        <mxCell id="-6zLBio0qQHxGw2DxLxj-49" value="" style="edgeStyle=orthogonalEdgeStyle;rounded=0;orthogonalLoop=1;jettySize=auto;html=1;" edge="1" parent="1" source="-6zLBio0qQHxGw2DxLxj-43" target="-6zLBio0qQHxGw2DxLxj-48">
          <mxGeometry relative="1" as="geometry" />
        </mxCell>
        <mxCell id="-6zLBio0qQHxGw2DxLxj-43" value="搜索后继结点和后继结点的父结点" style="whiteSpace=wrap;html=1;" vertex="1" parent="1">
          <mxGeometry x="300" y="930" width="120" height="60" as="geometry" />
        </mxCell>
        <mxCell id="-6zLBio0qQHxGw2DxLxj-47" value="Yes" style="text;html=1;align=center;verticalAlign=middle;resizable=0;points=[];autosize=1;strokeColor=none;fillColor=none;" vertex="1" parent="1">
          <mxGeometry x="360" y="900" width="40" height="20" as="geometry" />
        </mxCell>
        <mxCell id="-6zLBio0qQHxGw2DxLxj-51" value="" style="edgeStyle=orthogonalEdgeStyle;rounded=0;orthogonalLoop=1;jettySize=auto;html=1;" edge="1" parent="1" source="-6zLBio0qQHxGw2DxLxj-48" target="-6zLBio0qQHxGw2DxLxj-50">
          <mxGeometry relative="1" as="geometry" />
        </mxCell>
        <mxCell id="-6zLBio0qQHxGw2DxLxj-54" value="" style="edgeStyle=orthogonalEdgeStyle;rounded=0;orthogonalLoop=1;jettySize=auto;html=1;" edge="1" parent="1" source="-6zLBio0qQHxGw2DxLxj-48" target="-6zLBio0qQHxGw2DxLxj-53">
          <mxGeometry relative="1" as="geometry" />
        </mxCell>
        <mxCell id="-6zLBio0qQHxGw2DxLxj-48" value="后继结点为待删除&lt;br&gt;结点的右子树" style="rhombus;whiteSpace=wrap;html=1;" vertex="1" parent="1">
          <mxGeometry x="275" y="1040" width="170" height="80" as="geometry" />
        </mxCell>
        <mxCell id="-6zLBio0qQHxGw2DxLxj-50" value="待删除结点的左子树给后继结点的左指针&lt;br&gt;返回后继结点" style="whiteSpace=wrap;html=1;" vertex="1" parent="1">
          <mxGeometry x="745" y="1050" width="120" height="60" as="geometry" />
        </mxCell>
        <mxCell id="-6zLBio0qQHxGw2DxLxj-52" value="Yes" style="text;html=1;align=center;verticalAlign=middle;resizable=0;points=[];autosize=1;strokeColor=none;fillColor=none;" vertex="1" parent="1">
          <mxGeometry x="440" y="1060" width="40" height="20" as="geometry" />
        </mxCell>
        <mxCell id="-6zLBio0qQHxGw2DxLxj-66" value="" style="edgeStyle=orthogonalEdgeStyle;rounded=0;orthogonalLoop=1;jettySize=auto;html=1;" edge="1" parent="1" source="-6zLBio0qQHxGw2DxLxj-53" target="-6zLBio0qQHxGw2DxLxj-65">
          <mxGeometry relative="1" as="geometry" />
        </mxCell>
        <mxCell id="-6zLBio0qQHxGw2DxLxj-69" value="" style="edgeStyle=orthogonalEdgeStyle;rounded=0;orthogonalLoop=1;jettySize=auto;html=1;" edge="1" parent="1" source="-6zLBio0qQHxGw2DxLxj-53" target="-6zLBio0qQHxGw2DxLxj-68">
          <mxGeometry relative="1" as="geometry" />
        </mxCell>
        <mxCell id="-6zLBio0qQHxGw2DxLxj-53" value="后继结点不为待删除&lt;br&gt;结点的右子树，并且该后继结&lt;br&gt;点没有右子树" style="rhombus;whiteSpace=wrap;html=1;" vertex="1" parent="1">
          <mxGeometry x="262.5" y="1160" width="195" height="80" as="geometry" />
        </mxCell>
        <mxCell id="-6zLBio0qQHxGw2DxLxj-55" value="No" style="text;html=1;align=center;verticalAlign=middle;resizable=0;points=[];autosize=1;strokeColor=none;fillColor=none;" vertex="1" parent="1">
          <mxGeometry x="360" y="1130" width="30" height="20" as="geometry" />
        </mxCell>
        <mxCell id="-6zLBio0qQHxGw2DxLxj-59" value="Yes" style="text;html=1;align=center;verticalAlign=middle;resizable=0;points=[];autosize=1;strokeColor=none;fillColor=none;" vertex="1" parent="1">
          <mxGeometry x="360" y="480" width="40" height="20" as="geometry" />
        </mxCell>
        <mxCell id="-6zLBio0qQHxGw2DxLxj-61" value="No" style="text;html=1;align=center;verticalAlign=middle;resizable=0;points=[];autosize=1;strokeColor=none;fillColor=none;" vertex="1" parent="1">
          <mxGeometry x="365" y="590" width="30" height="20" as="geometry" />
        </mxCell>
        <mxCell id="-6zLBio0qQHxGw2DxLxj-62" value="No" style="text;html=1;align=center;verticalAlign=middle;resizable=0;points=[];autosize=1;strokeColor=none;fillColor=none;" vertex="1" parent="1">
          <mxGeometry x="365" y="700" width="30" height="20" as="geometry" />
        </mxCell>
        <mxCell id="-6zLBio0qQHxGw2DxLxj-63" value="No" style="text;html=1;align=center;verticalAlign=middle;resizable=0;points=[];autosize=1;strokeColor=none;fillColor=none;" vertex="1" parent="1">
          <mxGeometry x="365" y="800" width="30" height="20" as="geometry" />
        </mxCell>
        <mxCell id="-6zLBio0qQHxGw2DxLxj-65" value="待删除结点的左子树给后继节点的左指针；待删除结点的右子树给后继结点的右子树；后继结点的父结点置NULL；释放cur结点；返回后继结点" style="whiteSpace=wrap;html=1;" vertex="1" parent="1">
          <mxGeometry x="620" y="1165" width="180" height="70" as="geometry" />
        </mxCell>
        <mxCell id="-6zLBio0qQHxGw2DxLxj-67" value="Yes" style="text;html=1;align=center;verticalAlign=middle;resizable=0;points=[];autosize=1;strokeColor=none;fillColor=none;" vertex="1" parent="1">
          <mxGeometry x="450" y="1180" width="40" height="20" as="geometry" />
        </mxCell>
        <mxCell id="-6zLBio0qQHxGw2DxLxj-72" value="" style="edgeStyle=orthogonalEdgeStyle;rounded=0;orthogonalLoop=1;jettySize=auto;html=1;" edge="1" parent="1" source="-6zLBio0qQHxGw2DxLxj-68" target="-6zLBio0qQHxGw2DxLxj-71">
          <mxGeometry relative="1" as="geometry" />
        </mxCell>
        <mxCell id="-6zLBio0qQHxGw2DxLxj-68" value="后继结点不为待删除&lt;br&gt;结点的右子树，并且该后继结&lt;br&gt;点有右子树" style="rhombus;whiteSpace=wrap;html=1;" vertex="1" parent="1">
          <mxGeometry x="262.5" y="1300" width="195" height="80" as="geometry" />
        </mxCell>
        <mxCell id="-6zLBio0qQHxGw2DxLxj-70" value="No" style="text;html=1;align=center;verticalAlign=middle;resizable=0;points=[];autosize=1;strokeColor=none;fillColor=none;" vertex="1" parent="1">
          <mxGeometry x="365" y="1250" width="30" height="20" as="geometry" />
        </mxCell>
        <mxCell id="-6zLBio0qQHxGw2DxLxj-71" value="&lt;span&gt;后继结点的右子树给后继节点的父结点的左指针；待删除结点的左子树给后继结点的左指针；待删除结点的右子树给后继结点的右指针；&lt;/span&gt;&lt;span&gt;释放cur结点；返回后继结点&lt;/span&gt;" style="whiteSpace=wrap;html=1;" vertex="1" parent="1">
          <mxGeometry x="520" y="1300" width="165" height="80" as="geometry" />
        </mxCell>
        <mxCell id="-6zLBio0qQHxGw2DxLxj-73" value="Yes" style="text;html=1;align=center;verticalAlign=middle;resizable=0;points=[];autosize=1;strokeColor=none;fillColor=none;" vertex="1" parent="1">
          <mxGeometry x="457.5" y="1320" width="40" height="20" as="geometry" />
        </mxCell>
        <mxCell id="-6zLBio0qQHxGw2DxLxj-74" value="" style="endArrow=classic;html=1;exitX=0.5;exitY=1;exitDx=0;exitDy=0;entryX=0.5;entryY=0;entryDx=0;entryDy=0;" edge="1" parent="1" source="-6zLBio0qQHxGw2DxLxj-68" target="-6zLBio0qQHxGw2DxLxj-4">
          <mxGeometry width="50" height="50" relative="1" as="geometry">
            <mxPoint x="500" y="1320" as="sourcePoint" />
            <mxPoint x="550" y="1270" as="targetPoint" />
          </mxGeometry>
        </mxCell>
        <mxCell id="-6zLBio0qQHxGw2DxLxj-75" value="No" style="text;html=1;align=center;verticalAlign=middle;resizable=0;points=[];autosize=1;strokeColor=none;fillColor=none;" vertex="1" parent="1">
          <mxGeometry x="365" y="1380" width="30" height="20" as="geometry" />
        </mxCell>
        <mxCell id="-6zLBio0qQHxGw2DxLxj-76" value="" style="endArrow=classic;html=1;exitX=0.5;exitY=0;exitDx=0;exitDy=0;" edge="1" parent="1" source="-6zLBio0qQHxGw2DxLxj-9">
          <mxGeometry width="50" height="50" relative="1" as="geometry">
            <mxPoint x="600" y="190" as="sourcePoint" />
            <mxPoint x="360" y="60" as="targetPoint" />
            <Array as="points">
              <mxPoint x="150" y="60" />
            </Array>
          </mxGeometry>
        </mxCell>
        <mxCell id="-6zLBio0qQHxGw2DxLxj-78" value="" style="endArrow=none;html=1;exitX=0.5;exitY=0;exitDx=0;exitDy=0;" edge="1" parent="1" source="-6zLBio0qQHxGw2DxLxj-15">
          <mxGeometry width="50" height="50" relative="1" as="geometry">
            <mxPoint x="600" y="190" as="sourcePoint" />
            <mxPoint x="170" y="60" as="targetPoint" />
            <Array as="points">
              <mxPoint x="80" y="60" />
            </Array>
          </mxGeometry>
        </mxCell>
        <mxCell id="-6zLBio0qQHxGw2DxLxj-79" value="" style="endArrow=classic;html=1;exitX=0.5;exitY=1;exitDx=0;exitDy=0;" edge="1" parent="1" source="-6zLBio0qQHxGw2DxLxj-38">
          <mxGeometry width="50" height="50" relative="1" as="geometry">
            <mxPoint x="600" y="1370" as="sourcePoint" />
            <mxPoint x="360" y="1420" as="targetPoint" />
            <Array as="points">
              <mxPoint x="150" y="1420" />
            </Array>
          </mxGeometry>
        </mxCell>
        <mxCell id="-6zLBio0qQHxGw2DxLxj-80" value="" style="endArrow=none;html=1;entryX=0;entryY=0.5;entryDx=0;entryDy=0;" edge="1" parent="1" target="-6zLBio0qQHxGw2DxLxj-24">
          <mxGeometry width="50" height="50" relative="1" as="geometry">
            <mxPoint x="170" y="1420" as="sourcePoint" />
            <mxPoint x="90" y="550" as="targetPoint" />
            <Array as="points">
              <mxPoint x="20" y="1420" />
              <mxPoint x="20" y="550" />
            </Array>
          </mxGeometry>
        </mxCell>
        <mxCell id="-6zLBio0qQHxGw2DxLxj-81" value="" style="endArrow=none;html=1;" edge="1" parent="1">
          <mxGeometry width="50" height="50" relative="1" as="geometry">
            <mxPoint x="90" y="660" as="sourcePoint" />
            <mxPoint x="60" y="1420" as="targetPoint" />
            <Array as="points">
              <mxPoint x="60" y="660" />
            </Array>
          </mxGeometry>
        </mxCell>
        <mxCell id="-6zLBio0qQHxGw2DxLxj-82" value="" style="endArrow=classic;html=1;exitX=0.5;exitY=1;exitDx=0;exitDy=0;" edge="1" parent="1" source="-6zLBio0qQHxGw2DxLxj-71">
          <mxGeometry width="50" height="50" relative="1" as="geometry">
            <mxPoint x="860" y="1330" as="sourcePoint" />
            <mxPoint x="360" y="1420" as="targetPoint" />
            <Array as="points">
              <mxPoint x="603" y="1420" />
            </Array>
          </mxGeometry>
        </mxCell>
        <mxCell id="-6zLBio0qQHxGw2DxLxj-83" value="" style="endArrow=none;html=1;exitX=0.5;exitY=1;exitDx=0;exitDy=0;" edge="1" parent="1" source="-6zLBio0qQHxGw2DxLxj-65">
          <mxGeometry width="50" height="50" relative="1" as="geometry">
            <mxPoint x="860" y="1330" as="sourcePoint" />
            <mxPoint x="580" y="1420" as="targetPoint" />
            <Array as="points">
              <mxPoint x="710" y="1420" />
            </Array>
          </mxGeometry>
        </mxCell>
        <mxCell id="-6zLBio0qQHxGw2DxLxj-84" value="" style="endArrow=none;html=1;entryX=0.5;entryY=1;entryDx=0;entryDy=0;" edge="1" parent="1" target="-6zLBio0qQHxGw2DxLxj-50">
          <mxGeometry width="50" height="50" relative="1" as="geometry">
            <mxPoint x="690" y="1420" as="sourcePoint" />
            <mxPoint x="910" y="1280" as="targetPoint" />
            <Array as="points">
              <mxPoint x="805" y="1420" />
            </Array>
          </mxGeometry>
        </mxCell>
      </root>
    </mxGraphModel>
  </diagram>
</mxfile>
